Patient4_TMGait_0pt5_01_right_12_EMG.mot
version=1
nRows=40
nColumns=33
inDegrees=no
endheader
time	1LAddLong	2LGlutMax	3LGlutMed	4LIliopsoas	5LSemiMemb	6LBicFemLong	7LRecFem	8LVastMed	9LVastLat	10LGasMed	11LTibAnt	12lTibPost	13LPeroneusLong	14LSol	15LExtDigLong	16LFlexDigLong	17RAddLong	18RGlutMax	19RGlutMed	20RIliopsoas	21RSemiMemb	22RBicFemLong	23RRecFem	24RVastMed	25RVastLat	26RGasMed	27RTibAnt	28RTibPost	29RPeroneusLong	30RSol	31RExtDigLong	32RFlexDigLong
16.395	0.016785	0.076141	0.13428	-0.006256	0.017853	-0.27542	-0.034943	0.016022	-0.16632	0.063019	-0.032959	0.028992	-0.011292	-0.14206	-0.05249	-0.18799	-0.14343	-0.2327	0.18753	-0.004272	0.043182	-0.21042	-0.046234	-0.050201	-0.032806	-0.002747	0.11993	-0.005188	-0.052643	0.015411	0.005035	-0.003204
16.396	0.005951	0.14481	0.18524	0.001221	0.010071	-0.40756	-0.05722	0.026398	-0.077515	0.088348	-0.055389	0.029602	0.030975	-0.22446	-0.40024	-0.10223	-0.10895	-0.24338	0.18402	-0.001984	-0.021667	-0.17044	-0.074158	-0.056152	-0.040131	-0.011139	-0.028534	-0.003967	-0.068054	0.032501	-0.003662	-0.003052
16.397	0.000305	0.22949	-0.001678	0.006866	0.011902	-0.25482	-0.068359	0.032043	-0.027924	0.11017	0.024719	0.027924	0.027161	-0.32761	-0.49545	0.59067	-0.009613	-0.23331	0.12878	-0.032196	-0.043488	-0.14099	-0.028992	-0.086517	-0.056152	-0.01358	0.12909	-0.001526	-0.006714	0.028992	-0.000916	-0.006714
16.398	0.003052	0.25314	-0.071106	0.028381	0.010986	0.001984	-0.10086	0.019073	-0.024872	0.11688	0.061646	0.02533	-0.028076	-0.60837	-0.31204	0.53787	0.046539	-0.28809	0.13473	-0.11902	-0.037537	-0.13397	-0.025177	-0.085907	-0.055389	-0.010834	-0.009308	-0.007324	0.040741	0.016479	-0.003357	-0.00412
16.399	-0.005035	0.31372	-0.078735	0.014496	-0.017548	0.064697	-0.083771	0.006561	0.06958	0.079956	-0.13611	0.02533	0.050354	-0.52414	-0.025024	-0.31021	0.121	-0.27573	0.17624	-0.067749	-0.055389	-0.07782	-0.064545	-0.11215	-0.056763	-0.00412	0.044556	-0.00473	0.11322	-0.00885	-0.002899	-0.007935
16.4	-0.011902	0.271	-0.19089	0.005035	-0.036621	0.097198	-0.10315	0.030823	0.20996	0.069885	-0.30487	0.007324	0.14145	-0.16495	0.17349	-0.43396	0.18555	-0.29236	0.25436	-0.033417	-0.121	-0.18616	-0.053558	-0.23605	-0.05127	-0.013123	0.28976	-0.006866	0.078888	0.091705	-0.002441	-0.008545
16.401	-0.020142	0.27252	-0.12711	-0.003052	-0.06073	0.13809	0.010071	0.032196	0.14145	0.072784	-0.046692	0.009003	0.10834	0.024261	0.83817	0.003815	0.23941	-0.32379	0.28915	-0.099335	-0.1799	-0.2092	-0.042114	-0.25162	-0.045624	-0.014038	0.10574	-0.007935	0.04776	-0.000916	-0.00351	-0.005646
16.402	-0.021057	0.31723	0.055389	-0.006256	-0.086212	0.15778	0.079803	0.029297	0.22079	0.042572	0.036926	0.006409	0.17014	0.091553	-0.29739	-0.35339	0.21683	-0.33096	0.31067	-0.084991	-0.21179	-0.10605	-0.076904	-0.32089	-0.037537	-0.015869	0.47028	-0.002594	-0.10712	-0.079041	-0.004578	-0.00473
16.403	-0.028076	0.39627	0.084229	-0.010071	-0.10498	0.15427	0.11459	0.056915	0.31769	-0.002899	-0.049438	0.002747	0.36484	0.008087	0.008698	-0.25986	0.19882	-0.42389	0.29083	-0.075531	-0.24017	-0.01236	-0.077667	-0.30548	-0.009308	-0.014343	0.4245	0.000153	-0.24231	-0.060577	-0.00885	-0.011597
16.404	-0.037994	0.46646	0.010681	0.015259	-0.11795	0.087738	0.14175	0.066223	0.38788	-0.058594	-0.015106	-0.001678	0.41321	-0.064087	0.14801	0.001678	0.15411	-0.39871	0.29159	-0.032501	-0.27573	0.024414	-0.16083	-0.24536	0.015259	-0.001068	-0.23178	-0.003052	0.003357	-0.15305	-0.004578	-0.006104
16.405	-0.033417	0.49484	-0.16144	-0.015564	0.006104	0.052643	0.20386	0.020142	0.31342	-0.018463	0.068207	0.001831	0.30426	0.079956	-0.022736	0.003662	0.11612	-0.439	0.23514	-0.001068	-0.11704	-0.088959	-0.17746	-0.20325	0.039063	0.008545	0.083008	-0.004272	0.2449	-0.2005	-0.00351	-0.003662
16.406	-0.025024	0.43366	-0.21561	-0.014191	0.084991	0.10422	0.24857	0.085754	0.20218	0.014496	0.10483	-0.012054	0.21194	0.076599	-0.20035	-0.23071	0.12512	-0.48599	0.28351	0.033112	-0.050812	-0.15884	-0.16922	-0.20859	0.04303	0.019531	0.74265	-0.001678	0.43121	-0.22308	-0.004272	-0.001068
16.407	-0.006714	0.40176	-0.016937	-0.005188	0.067902	0.037079	0.14313	0.059357	0.096588	0.070648	0.28076	-0.009308	0.12833	0.001373	-0.22964	-0.16815	-0.063477	-0.47913	0.35904	-0.005341	-0.06897	-0.037537	-0.2002	-0.13397	0.050049	0.006561	0.73273	-0.001221	-0.024567	-0.16678	-0.002594	-0.005798
16.408	0	0.45853	0.021362	0.021515	-0.02121	-0.17578	-0.016327	0.004425	-0.12268	0.070038	0.31448	-0.011749	0.17059	0.023346	-0.29083	-0.077057	-0.066833	-0.46402	0.37201	0.008087	-0.033875	-0.002441	-0.19104	-0.082245	0.066833	-0.003052	0.26932	-0.009918	-0.31738	0.009918	-0.003967	-0.005646
16.409	0.011902	0.41489	-0.1358	0.00885	-0.043793	-0.18219	-0.012665	-0.023804	-0.52582	0.049438	0.16876	-0.016327	0.22873	0.036316	0.10193	-0.051117	-0.0383	-0.45715	0.21912	-0.015106	-0.000458	0.052032	-0.22415	-0.045929	0.070343	-0.010529	-0.10849	-0.003204	-0.21133	0.093689	-0.002441	-0.01297
16.41	0.01297	0.41824	-0.1918	0.007019	0.00412	-0.075073	0.02182	-0.019073	-0.62225	0.014801	-0.083466	-0.019989	0.25391	0.04303	-0.27161	-0.039673	0.046234	-0.51758	0.21576	-0.009003	0.04364	-0.093231	-0.25604	-0.10651	0.063629	-0.011444	-0.24887	-0.007324	-0.21362	0.15732	-0.004883	-0.010529
16.411	0.020905	0.39352	-0.12558	0.007782	0.070038	-0.036011	0.061646	0.020599	-0.33295	-0.007629	-0.17258	-0.013428	0.29831	-0.012207	0.39078	-0.004272	0.013123	-0.49469	0.27191	-0.0354	0.031586	-0.027313	-0.24628	-0.029907	0.050964	-0.011749	-0.10422	-0.009003	-0.21988	0.17868	-0.004578	-0.006409
16.412	0.002899	0.3801	0.50949	0.036011	0.041199	0.099792	0.12238	0.045776	-0.22888	0.036926	-0.13489	-0.019684	0.27969	-0.046082	-0.011749	-0.005798	0.021515	-0.37872	0.36423	-0.062866	0.044708	0.057831	-0.21744	-0.013275	0.060883	-0.004578	-0.19394	-0.007629	-0.1152	0.21255	-0.010071	-0.001831
16.413	0.002899	0.27298	0.52887	-0.00061	-0.000916	0.14206	0.21515	0.037384	-0.24033	0.05249	-0.088043	-0.017242	0.24887	0.06012	0.11581	0.010376	0.017548	-0.35248	0.4744	-0.008392	0.020447	-0.049438	-0.24872	0.059509	0.068054	-0.002441	-0.76584	-0.013733	0.06546	0.07782	-0.004425	-0.005188
16.414	0.001373	0.36072	0.4689	-0.013428	0.016174	0.1535	0.19562	0.006256	-0.20676	0.052338	-0.080719	-0.007629	0.19211	0.13107	0.15518	0.032654	0.027924	-0.32318	0.31281	0.030518	0.066223	-0.20859	-0.25818	0.10254	0.087738	-0.000458	-0.13641	-0.001526	0.13855	0.074615	0.001068	0.001984
16.415	0.014496	0.41153	0.3865	-0.012207	0.020294	0.18906	0.16129	-0.02243	-0.1236	0.036774	-0.12543	-0.008545	0.14389	0.10483	0.13519	0.053864	0.011902	-0.32272	0.23499	0.068817	0.12283	-0.39825	-0.18051	0.099487	0.059204	0.012512	0.49133	-0.003204	0.20538	-0.036621	-0.000916	-0.002136
16.416	-0.007477	0.31906	0.32181	-0.000458	-0.002594	0.24948	0.17532	-0.033875	-0.16586	0.038452	-0.1355	-0.005035	0.1976	0.090942	0.13901	0.053864	-0.001678	-0.37491	0.20905	0.054932	0.20447	-0.31006	-0.17883	0.11169	0.057373	0.014191	0.55298	0.000153	0.20309	-0.13428	-0.00412	0.000458
16.417	-0.00824	0.25848	0.22171	-0.012665	-0.035095	0.2504	0.040588	-0.029297	-0.15274	0.068512	-0.17014	0.004272	0.22293	0.072327	0.1712	0.061951	-0.000305	-0.35385	0.16907	0.04837	0.22598	-0.11841	-0.16586	0.093536	0.069885	0.009308	0.30624	-0.000458	-0.006561	-0.019989	-0.000916	-0.001831
16.418	0.002441	0.17166	0.10254	-0.000458	-0.044861	0.19745	-0.16129	-0.027618	0.001068	0.066681	-0.12375	0.000305	0.2449	0.090179	0.11322	0.097046	0.022278	-0.401	0.065155	0.023041	0.1532	0.08606	-0.18249	0.094604	0.076904	-0.001373	-0.026855	-0.002747	-0.12802	0.061646	-0.005493	0.001373
16.419	0.001831	0.04776	0.015717	0.00351	-0.06073	0.1152	-0.13245	-0.026398	0.15808	0.00412	-0.035706	0.005493	0.31677	0.11108	-0.036469	0.097198	0.027466	-0.43884	0.020905	0.051575	0.071869	0.092621	-0.19348	0.023956	0.067902	-0.000153	-0.054016	-0.001526	-0.042725	0.22797	-0.001526	-0.009918
16.42	0.015564	-0.034943	-0.029144	-0.003662	-0.031128	0.084534	0.039215	-0.027313	0.22049	-0.0354	0.10498	0.012207	0.16342	0.15579	-0.083771	0.075684	0.019379	-0.45837	0.037079	0.088196	0.058594	-0.010376	-0.16998	-0.018616	0.066833	-0.005798	-0.27023	-0.004578	0.024261	0.29678	-0.00473	-0.00824
16.421	0.001068	-0.043488	-0.014038	-0.003052	-0.056	0.050049	0.29007	-0.028839	0.19318	-0.008698	0.18494	0.013733	0.052185	0.15442	0.14358	0.078735	0.056763	-0.33157	-0.008392	0.1358	0.092926	0.001526	-0.17838	-0.034637	0.06958	-0.008087	-0.47943	-0.001984	-0.029449	0.2417	-0.007782	-0.016632
16.422	0.004578	-0.07782	-0.053558	0.004272	-0.024567	0.15945	0.3595	-0.016174	0.1561	0.05661	0.2449	0.016479	-0.06546	0.15656	0.159	0.075531	0.003052	-0.3186	0.001526	0.14999	0.07019	0.060425	-0.20477	-0.026703	0.080414	0.003815	-0.42786	-0.004883	0.062103	0.24872	-0.002441	-0.016327
16.423	0.012665	-0.15961	-0.085907	0.00824	0.028229	0.27908	0.29236	-0.007477	0.11749	0.07309	0.38818	0.016174	-0.14893	0.14297	0.39978	0.069122	0.031281	-0.34821	-0.016174	0.12589	0.068512	0.13962	-0.19516	-0.10239	0.055695	0.004425	-0.19974	-0.00473	0.041199	0.26886	-0.000763	-0.00946
16.424	0.025482	-0.2536	-0.048828	0.022278	0.088348	0.096893	0.13153	0.009308	0.13672	0.061951	0.22186	0.02243	-0.086975	0.112	0.2301	0.095367	0.00412	-0.37964	-0.066986	0.054321	-0.014038	0.073547	-0.20386	-0.12253	0.056152	-0.009155	-0.065918	-0.010681	0.054779	0.28854	-0.003662	-0.014191
16.425	0.029602	-0.32471	-0.19974	0.022583	0.11536	-0.11368	-0.168	0.005493	0.08728	0.058746	0.14191	0.027008	-0.039063	0.14358	0.20432	0.083923	-0.039063	-0.30289	-0.13779	0.025177	-0.25253	0.09613	-0.20111	-0.051727	0.059814	-0.007629	0.28458	-0.006256	-0.084076	0.18356	-0.008545	-0.012207
16.426	0.026398	-0.39017	-0.12955	0.014343	0.040588	-0.090942	-0.20126	0.002899	-0.00412	0.051117	-0.053406	0.027618	-0.01709	0.089569	0.0354	0.075226	-0.10941	-0.32272	-0.18448	-0.03006	-0.24109	0.19272	-0.24628	0.020447	0.06424	-0.005798	0.39841	-0.007324	0.063019	0.041199	0.002899	-0.00946
16.427	0.008392	-0.38055	-0.1387	-0.007629	-0.033264	-0.19653	-0.15991	-0.005951	0.066223	0.060883	-0.18326	0.028992	0.001526	0.1564	0.10635	0.055237	-0.12299	-0.22476	-0.19623	-0.051727	-0.11688	0.31265	-0.26535	0.096741	0.060577	-0.008545	0.35187	-0.003357	0.19165	-0.009308	-0.002136	-0.00885
16.428	0.005951	-0.35568	-0.085297	0.001526	0.004272	-0.43106	-0.12207	-0.02182	0.2887	0.074463	0.023956	0.028076	-0.00473	0.14984	-0.085602	0.036926	-0.14358	-0.19211	-0.20248	-0.11704	-0.20737	0.45242	-0.22308	0.034332	0.076447	-0.019226	0.072632	0.000458	-0.058136	0.066681	-0.002441	-0.015106
16.429	0.011902	-0.34256	0.014496	0.008698	0.06485	-0.4773	-0.17578	-0.019836	0.39459	0.058441	0.19608	0.022736	0.056152	0.020447	-0.4335	0.032959	-0.20325	-0.19333	-0.21484	-0.081024	-0.20309	0.55817	-0.23773	-0.028839	0.057678	-0.011139	-0.38696	-0.001526	-0.08194	0.067444	-0.00473	-0.012207
16.43	0.02121	-0.31036	-0.16357	0.003052	0.073853	-0.38788	-0.097504	-0.014648	0.30533	0.062866	0.46051	0.023499	0.03952	-0.019531	0.3067	0.045013	-0.22827	-0.16708	-0.25604	0.006409	-0.16037	0.40558	-0.22903	0.067139	0.078278	-0.000458	-0.098572	-0.001373	0.030212	0.074005	-0.003815	-0.011749
16.431	0.024719	-0.29129	-0.159	0.005035	0.039825	-0.27405	-0.13123	-0.02243	0.20203	0.041504	0.36606	0.021973	-0.13702	0.11856	1.1499	0.063782	-0.21851	-0.13046	-0.23361	0.03952	-0.10254	0.20172	-0.27268	0.041656	0.090942	0.000305	0.35187	-0.001984	0.10834	0.060883	-0.006866	-0.016479
16.432	0.028687	-0.24521	-0.085297	0.013275	0.02594	-0.11292	-0.17853	-0.041962	0.2388	0.047607	0.067444	0.014191	-0.21378	0.22492	0.25055	0.056152	-0.16098	-0.069885	-0.242	0.10696	-0.029602	0.36713	-0.2945	-0.019836	0.079956	-0.004883	0.36545	0.001526	0.10223	0.022888	-0.004272	-0.014496
16.433	0.020905	-0.26581	-0.042877	-0.000763	0.027161	-0.01236	-0.13123	-0.037842	0.3569	0.021057	-0.34775	0.02121	-0.081024	0.1857	-0.38605	0.046539	-0.034485	-0.10559	-0.34515	0.066223	-0.012817	0.40176	-0.26901	-0.10727	0.087585	-0.006561	-0.37476	-0.002289	0.11292	-0.085602	-0.000305	-0.014343
16.434	-0.009613	-0.28931	-0.059662	0.021973	0.050354	0.056	-0.021973	-0.056763	0.4306	-0.010223	-0.88348	0.021515	0.081787	0.15518	-0.28946	0.043182	-0.022278	-0.112	-0.3508	0.064087	-0.019226	0.39291	-0.28076	-0.13168	0.070496	-0.003662	-1.2766	-0.004425	0.096283	-0.13489	-0.001526	-0.016632
